<svg xmlns="http://www.w3.org/2000/svg" width="47" height="54">
    <defs>
        <linearGradient id="5aw9ydg36a" x1="0%" x2="70.711%" y1="70.711%" y2="0%">
            <stop offset="0%" stop-color="#00AEED"/>
            <stop offset="100%" stop-color="#74C4F2"/>
        </linearGradient>
        <linearGradient id="i6wrfiygsb" x1="0%" x2="70.711%" y1="70.711%" y2="0%">
            <stop offset="0%" stop-color="#EDBE3F"/>
            <stop offset="100%" stop-color="#F5D981"/>
        </linearGradient>
    </defs>
    <path fill-rule="evenodd" fill="#4C6A78" d="M24.329 53.959C11.431 53.959.938 43.466.938 30.568c0-10.368 6.963-19.608 16.933-22.47a1.227 1.227 0 0 1 1.516 1.517 20.987 20.987 0 0 0-.827 5.782c0 11.547 9.394 20.94 20.941 20.94 1.922 0 3.867-.278 5.782-.827a1.224 1.224 0 0 1 1.514 1.516c-2.862 9.97-12.101 16.933-22.468 16.933z"/>
    <path fill="url(#5aw9ydg36a)" d="M24.329 53.959C11.431 53.959.938 43.466.938 30.568c0-10.368 6.963-19.608 16.933-22.47a1.227 1.227 0 0 1 1.516 1.517 20.987 20.987 0 0 0-.827 5.782c0 11.547 9.394 20.94 20.941 20.94 1.922 0 3.867-.278 5.782-.827a1.224 1.224 0 0 1 1.514 1.516c-2.862 9.97-12.101 16.933-22.468 16.933z"/>
    <path fill-rule="evenodd" fill="#A7976C" d="M31.319 7.323c-.283 1.041-.747 1.041-1.03 0-.283-1.041-1.367-2.125-2.408-2.408-1.041-.283-1.041-.747 0-1.03 1.041-.283 2.125-1.367 2.408-2.408.283-1.041.747-1.041 1.03 0 .283 1.041 1.367 2.125 2.408 2.408 1.041.283 1.041.747 0 1.03-1.041.283-2.125 1.367-2.408 2.408z"/>
    <path fill="url(#i6wrfiygsb)" d="M31.319 7.323c-.283 1.041-.747 1.041-1.03 0-.283-1.041-1.367-2.125-2.408-2.408-1.041-.283-1.041-.747 0-1.03 1.041-.283 2.125-1.367 2.408-2.408.283-1.041.747-1.041 1.03 0 .283 1.041 1.367 2.125 2.408 2.408 1.041.283 1.041.747 0 1.03-1.041.283-2.125 1.367-2.408 2.408z"/>
    <path fill-rule="evenodd" fill="#A7976C" d="M39.741 23.412c-.43 1.577-1.132 1.577-1.561 0-.43-1.578-2.071-3.22-3.649-3.649-1.577-.429-1.577-1.131 0-1.561 1.578-.429 3.219-2.071 3.649-3.648.429-1.578 1.131-1.578 1.561 0 .429 1.577 2.071 3.219 3.648 3.648 1.578.43 1.578 1.132 0 1.561-1.577.429-3.219 2.071-3.648 3.649z"/>
    <path fill="url(#i6wrfiygsb)" d="M39.741 23.412c-.43 1.577-1.132 1.577-1.561 0-.43-1.578-2.071-3.22-3.649-3.649-1.577-.429-1.577-1.131 0-1.561 1.578-.429 3.219-2.071 3.649-3.648.429-1.578 1.131-1.578 1.561 0 .429 1.577 2.071 3.219 3.648 3.648 1.578.43 1.578 1.132 0 1.561-1.577.429-3.219 2.071-3.648 3.649z"/>
</svg>
