<svg 
 xmlns="http://www.w3.org/2000/svg"
 width="68px" height="37px">
<defs>
<linearGradient id="PSgrad_0" x1="0%" x2="70.711%" y1="70.711%" y2="0%">
  <stop offset="0%" stop-color="#D8E7F8" stop-opacity="1" />
  <stop offset="100%" stop-color="#E4EDF9" stop-opacity="1" />
</linearGradient>

</defs>
<path fill-rule="evenodd"  fill="#ffffff"
 d="M47.243,36.956 C53.166,36.956 57.968,32.236 57.968,26.413 C57.968,20.591 53.166,15.871 47.243,15.871 C47.206,15.871 47.170,15.876 47.133,15.877 C46.180,7.470 38.929,0.933 30.123,0.933 C23.168,0.933 17.186,5.012 14.506,10.866 C14.421,10.865 14.337,10.860 14.252,10.860 C6.922,10.860 0.979,16.702 0.979,23.908 C0.979,31.114 6.922,36.956 14.252,36.956 "/>
<path fill-rule="evenodd"  fill="rgb(202, 201, 210)"
 d="M61.180,36.991 C64.919,36.991 67.951,33.979 67.951,30.263 C67.951,26.547 64.919,23.535 61.180,23.535 C61.157,23.535 61.134,23.538 61.111,23.538 C60.509,18.173 55.931,14.000 50.372,14.000 C45.981,14.000 42.204,16.604 40.513,20.340 C40.459,20.339 40.406,20.336 40.353,20.336 C35.725,20.336 31.973,24.065 31.973,28.664 C31.973,33.263 35.725,36.991 40.353,36.991 "/>
<path fill="url(#PSgrad_0)"
 d="M61.180,36.991 C64.919,36.991 67.951,33.979 67.951,30.263 C67.951,26.547 64.919,23.535 61.180,23.535 C61.157,23.535 61.134,23.538 61.111,23.538 C60.509,18.173 55.931,14.000 50.372,14.000 C45.981,14.000 42.204,16.604 40.513,20.340 C40.459,20.339 40.406,20.336 40.353,20.336 C35.725,20.336 31.973,24.065 31.973,28.664 C31.973,33.263 35.725,36.991 40.353,36.991 "/>
</svg>