<svg 
 xmlns="http://www.w3.org/2000/svg"
 width="68px" height="55px">
<defs>
<linearGradient id="PSgrad_0" x1="0%" x2="70.711%" y1="70.711%" y2="0%">
  <stop offset="0%" stop-color="#DCE8F9" stop-opacity="1" />
  <stop offset="100%" stop-color="#E2ECF9" stop-opacity="1" />
</linearGradient>
<linearGradient id="PSgrad_1" x1="0%" x2="70.711%" y1="70.711%" y2="0%">
  <stop offset="0%" stop-color="#05ACEC" stop-opacity="1" />
  <stop offset="100%" stop-color="#74C4F2" stop-opacity="1" />
</linearGradient>

</defs>
<path fill-rule="evenodd"  fill="#ffffff"
 d="M47.243,36.956 C53.166,36.956 57.968,32.236 57.968,26.413 C57.968,20.591 53.166,15.871 47.243,15.871 C47.206,15.871 47.170,15.876 47.134,15.877 C46.180,7.470 38.929,0.933 30.123,0.933 C23.168,0.933 17.186,5.012 14.506,10.867 C14.421,10.865 14.337,10.860 14.252,10.860 C6.922,10.860 0.979,16.702 0.979,23.908 C0.979,31.114 6.922,36.956 14.252,36.956 "/>
<path fill-rule="evenodd"  fill="rgb(215, 214, 222)"
 d="M61.180,36.991 C64.919,36.991 67.951,33.979 67.951,30.263 C67.951,26.547 64.919,23.534 61.180,23.534 C61.157,23.534 61.134,23.538 61.111,23.538 C60.509,18.173 55.931,14.000 50.372,14.000 C45.981,14.000 42.204,16.604 40.513,20.340 C40.459,20.339 40.406,20.336 40.352,20.336 C35.725,20.336 31.973,24.065 31.973,28.664 C31.973,33.263 35.725,36.991 40.352,36.991 "/>
<path fill="url(#PSgrad_0)"
 d="M61.180,36.991 C64.919,36.991 67.951,33.979 67.951,30.263 C67.951,26.547 64.919,23.534 61.180,23.534 C61.157,23.534 61.134,23.538 61.111,23.538 C60.509,18.173 55.931,14.000 50.372,14.000 C45.981,14.000 42.204,16.604 40.513,20.340 C40.459,20.339 40.406,20.336 40.352,20.336 C35.725,20.336 31.973,24.065 31.973,28.664 C31.973,33.263 35.725,36.991 40.352,36.991 "/>
<path fill-rule="evenodd"  fill="rgb(56, 80, 89)"
 d="M53.373,54.1000 L38.211,54.1000 C37.374,54.1000 36.695,54.329 36.695,53.500 C36.695,52.671 37.374,51.1000 38.211,51.1000 L53.373,51.1000 C54.210,51.1000 54.889,52.671 54.889,53.500 C54.889,54.329 54.210,54.1000 53.373,54.1000 ZM43.265,47.000 L28.104,47.000 C27.267,47.000 26.588,46.329 26.588,45.500 C26.588,44.671 27.267,44.000 28.104,44.000 L43.265,44.000 C44.102,44.000 44.781,44.671 44.781,45.500 C44.781,46.329 44.102,47.000 43.265,47.000 ZM21.534,47.000 L11.426,47.000 C10.589,47.000 9.910,46.329 9.910,45.500 C9.910,44.671 10.589,44.000 11.426,44.000 L21.534,44.000 C22.371,44.000 23.050,44.671 23.050,45.500 C23.050,46.329 22.371,47.000 21.534,47.000 ZM11.426,51.1000 L31.641,51.1000 C32.479,51.1000 33.158,52.671 33.158,53.500 C33.158,54.329 32.479,54.1000 31.641,54.1000 L11.426,54.1000 C10.589,54.1000 9.910,54.329 9.910,53.500 C9.910,52.671 10.589,51.1000 11.426,51.1000 Z"/>
<path fill="url(#PSgrad_1)"
 d="M53.373,54.1000 L38.211,54.1000 C37.374,54.1000 36.695,54.329 36.695,53.500 C36.695,52.671 37.374,51.1000 38.211,51.1000 L53.373,51.1000 C54.210,51.1000 54.889,52.671 54.889,53.500 C54.889,54.329 54.210,54.1000 53.373,54.1000 ZM43.265,47.000 L28.104,47.000 C27.267,47.000 26.588,46.329 26.588,45.500 C26.588,44.671 27.267,44.000 28.104,44.000 L43.265,44.000 C44.102,44.000 44.781,44.671 44.781,45.500 C44.781,46.329 44.102,47.000 43.265,47.000 ZM21.534,47.000 L11.426,47.000 C10.589,47.000 9.910,46.329 9.910,45.500 C9.910,44.671 10.589,44.000 11.426,44.000 L21.534,44.000 C22.371,44.000 23.050,44.671 23.050,45.500 C23.050,46.329 22.371,47.000 21.534,47.000 ZM11.426,51.1000 L31.641,51.1000 C32.479,51.1000 33.158,52.671 33.158,53.500 C33.158,54.329 32.479,54.1000 31.641,54.1000 L11.426,54.1000 C10.589,54.1000 9.910,54.329 9.910,53.500 C9.910,52.671 10.589,51.1000 11.426,51.1000 Z"/>
</svg>