<svg 
 xmlns="http://www.w3.org/2000/svg"
 width="68px" height="42px">
<defs>
<linearGradient id="PSgrad_0" x1="0%" x2="70.711%" y1="70.711%" y2="0%">
  <stop offset="0%" stop-color="#EDBE3E" stop-opacity="1" />
  <stop offset="100%" stop-color="#F4D255" stop-opacity="1" />
</linearGradient>
<linearGradient id="PSgrad_1" x1="0%" x2="70.711%" y1="70.711%" y2="0%">
  <stop offset="0%" stop-color="#D8E7F8" stop-opacity="1" />
  <stop offset="100%" stop-color="#E4EDF9" stop-opacity="1" />
</linearGradient>

</defs>
<path fill-rule="evenodd"  fill="rgb(75, 69, 45)"
 d="M62.991,12.998 C62.991,20.176 57.172,25.995 49.994,25.995 C42.815,25.995 36.996,20.176 36.996,12.998 C36.996,5.820 42.815,0.001 49.994,0.001 C57.172,0.001 62.991,5.820 62.991,12.998 Z"/>
<path fill="url(#PSgrad_0)"
 d="M62.991,12.998 C62.991,20.176 57.172,25.995 49.994,25.995 C42.815,25.995 36.996,20.176 36.996,12.998 C36.996,5.820 42.815,0.001 49.994,0.001 C57.172,0.001 62.991,5.820 62.991,12.998 Z"/>
<path fill-rule="evenodd"  fill="#ffffff"
 d="M47.243,41.956 C53.166,41.956 57.968,37.236 57.968,31.413 C57.968,25.591 53.166,20.871 47.243,20.871 C47.206,20.871 47.170,20.876 47.134,20.877 C46.180,12.470 38.929,5.933 30.123,5.933 C23.168,5.933 17.186,10.012 14.506,15.867 C14.421,15.865 14.337,15.860 14.252,15.860 C6.922,15.860 0.979,21.702 0.979,28.908 C0.979,36.114 6.922,41.956 14.252,41.956 "/>
<path fill-rule="evenodd"  fill="rgb(200, 197, 205)"
 d="M61.180,41.991 C64.919,41.991 67.951,38.979 67.951,35.263 C67.951,31.547 64.919,28.535 61.180,28.535 C61.157,28.535 61.134,28.538 61.111,28.538 C60.509,23.173 55.931,19.000 50.372,19.000 C45.981,19.000 42.204,21.604 40.513,25.340 C40.459,25.339 40.406,25.336 40.352,25.336 C35.725,25.336 31.973,29.065 31.973,33.664 C31.973,38.263 35.725,41.991 40.352,41.991 "/>
<path fill="url(#PSgrad_1)"
 d="M61.180,41.991 C64.919,41.991 67.951,38.979 67.951,35.263 C67.951,31.547 64.919,28.535 61.180,28.535 C61.157,28.535 61.134,28.538 61.111,28.538 C60.509,23.173 55.931,19.000 50.372,19.000 C45.981,19.000 42.204,21.604 40.513,25.340 C40.459,25.339 40.406,25.336 40.352,25.336 C35.725,25.336 31.973,29.065 31.973,33.664 C31.973,38.263 35.725,41.991 40.352,41.991 "/>
</svg>