<svg 
 xmlns="http://www.w3.org/2000/svg"
 width="68px" height="44px">
<defs>
<linearGradient id="PSgrad_0" x1="0%" x2="70.711%" y1="70.711%" y2="0%">
  <stop offset="0%" stop-color="#2CB3ED" stop-opacity="1" />
  <stop offset="100%" stop-color="#64BFF1" stop-opacity="1" />
</linearGradient>
<linearGradient id="PSgrad_1" x1="0%" x2="70.711%" y1="70.711%" y2="0%">
  <stop offset="0%" stop-color="#EDBE43" stop-opacity="1" />
  <stop offset="100%" stop-color="#F3D36C" stop-opacity="1" />
</linearGradient>
<linearGradient id="PSgrad_2" x1="0%" x2="70.711%" y1="70.711%" y2="0%">
  <stop offset="0%" stop-color="#D7E6F7" stop-opacity="1" />
  <stop offset="100%" stop-color="#E2ECF9" stop-opacity="1" />
</linearGradient>

</defs>
<path fill-rule="evenodd"  fill="rgb(20, 21, 22)"
 d="M53.677,28.950 C45.548,28.950 38.934,22.336 38.934,14.206 C38.934,7.672 43.323,1.848 49.607,0.045 C49.881,-0.032 50.168,0.043 50.366,0.241 C50.565,0.440 50.640,0.730 50.562,1.000 C50.217,2.205 50.041,3.432 50.041,4.645 C50.041,11.922 55.961,17.843 63.239,17.843 C64.450,17.843 65.677,17.667 66.883,17.321 C67.154,17.245 67.444,17.320 67.642,17.518 C67.840,17.716 67.916,18.007 67.838,18.277 C66.034,24.561 60.211,28.950 53.677,28.950 Z"/>
<path fill="url(#PSgrad_0)"
 d="M53.677,28.950 C45.548,28.950 38.934,22.336 38.934,14.206 C38.934,7.672 43.323,1.848 49.607,0.045 C49.881,-0.032 50.168,0.043 50.366,0.241 C50.565,0.440 50.640,0.730 50.562,1.000 C50.217,2.205 50.041,3.432 50.041,4.645 C50.041,11.922 55.961,17.843 63.239,17.843 C64.450,17.843 65.677,17.667 66.883,17.321 C67.154,17.245 67.444,17.320 67.642,17.518 C67.840,17.716 67.916,18.007 67.838,18.277 C66.034,24.561 60.211,28.950 53.677,28.950 Z"/>
<path fill-rule="evenodd"  fill="rgb(66, 61, 38)"
 d="M63.319,7.323 C63.036,8.364 62.572,8.364 62.289,7.323 C62.006,6.282 60.922,5.198 59.881,4.915 C58.840,4.632 58.840,4.168 59.881,3.885 C60.922,3.602 62.006,2.518 62.289,1.477 C62.572,0.436 63.036,0.436 63.319,1.477 C63.602,2.518 64.686,3.602 65.727,3.885 C66.768,4.168 66.768,4.632 65.727,4.915 C64.686,5.198 63.602,6.282 63.319,7.323 Z"/>
<path fill="url(#PSgrad_1)"
 d="M63.319,7.323 C63.036,8.364 62.572,8.364 62.289,7.323 C62.006,6.282 60.922,5.198 59.881,4.915 C58.840,4.632 58.840,4.168 59.881,3.885 C60.922,3.602 62.006,2.518 62.289,1.477 C62.572,0.436 63.036,0.436 63.319,1.477 C63.602,2.518 64.686,3.602 65.727,3.885 C66.768,4.168 66.768,4.632 65.727,4.915 C64.686,5.198 63.602,6.282 63.319,7.323 Z"/>
<path fill-rule="evenodd"  fill="rgb(66, 61, 38)"
 d="M7.868,9.970 C7.651,10.765 7.298,10.765 7.082,9.970 C6.866,9.176 6.039,8.350 5.245,8.134 C4.451,7.917 4.451,7.564 5.245,7.348 C6.039,7.132 6.866,6.305 7.082,5.511 C7.298,4.717 7.651,4.717 7.868,5.511 C8.084,6.305 8.910,7.132 9.704,7.348 C10.499,7.564 10.499,7.917 9.704,8.134 C8.910,8.350 8.084,9.176 7.868,9.970 Z"/>
<path fill="url(#PSgrad_1)"
 d="M7.868,9.970 C7.651,10.765 7.298,10.765 7.082,9.970 C6.866,9.176 6.039,8.350 5.245,8.134 C4.451,7.917 4.451,7.564 5.245,7.348 C6.039,7.132 6.866,6.305 7.082,5.511 C7.298,4.717 7.651,4.717 7.868,5.511 C8.084,6.305 8.910,7.132 9.704,7.348 C10.499,7.564 10.499,7.917 9.704,8.134 C8.910,8.350 8.084,9.176 7.868,9.970 Z"/>
<path fill-rule="evenodd"  fill="rgb(200, 193, 192)"
 d="M47.243,43.956 C53.166,43.956 57.968,39.236 57.968,33.413 C57.968,27.591 53.166,22.871 47.243,22.871 C47.206,22.871 47.171,22.876 47.133,22.877 C46.180,14.470 38.929,7.933 30.123,7.933 C23.168,7.933 17.186,12.012 14.506,17.867 C14.421,17.865 14.337,17.860 14.252,17.860 C6.922,17.860 0.979,23.702 0.979,30.908 C0.979,38.114 6.922,43.956 14.252,43.956 "/>
<path fill="url(#PSgrad_2)"
 d="M47.243,43.956 C53.166,43.956 57.968,39.236 57.968,33.413 C57.968,27.591 53.166,22.871 47.243,22.871 C47.206,22.871 47.171,22.876 47.133,22.877 C46.180,14.470 38.929,7.933 30.123,7.933 C23.168,7.933 17.186,12.012 14.506,17.867 C14.421,17.865 14.337,17.860 14.252,17.860 C6.922,17.860 0.979,23.702 0.979,30.908 C0.979,38.114 6.922,43.956 14.252,43.956 "/>
<path fill-rule="evenodd"  fill="#ffffff"
 d="M61.180,43.991 C64.919,43.991 67.951,40.979 67.951,37.263 C67.951,33.547 64.919,30.535 61.180,30.535 C61.157,30.535 61.134,30.538 61.111,30.538 C60.509,25.173 55.931,21.000 50.372,21.000 C45.981,21.000 42.204,23.604 40.513,27.340 C40.459,27.339 40.406,27.336 40.352,27.336 C35.725,27.336 31.973,31.065 31.973,35.664 C31.973,40.263 35.725,43.991 40.352,43.991 "/>
</svg>