<svg 
 xmlns="http://www.w3.org/2000/svg"
 width="68px" height="61px">
<defs>
<linearGradient id="PSgrad_0" x1="0%" x2="70.711%" y1="70.711%" y2="0%">
  <stop offset="0%" stop-color="#D8E7F8" stop-opacity="1" />
  <stop offset="100%" stop-color="#E6EFFA" stop-opacity="1" />
</linearGradient>
<linearGradient id="PSgrad_1" x1="0%" x2="70.711%" y1="70.711%" y2="0%">
  <stop offset="0%" stop-color="#05ACEC" stop-opacity="1" />
  <stop offset="100%" stop-color="#76C4F2" stop-opacity="1" />
</linearGradient>

</defs>
<path fill-rule="evenodd"  fill="#ffffff"
 d="M47.243,36.956 C53.166,36.956 57.968,32.236 57.968,26.413 C57.968,20.591 53.166,15.871 47.243,15.871 C47.206,15.871 47.171,15.876 47.133,15.877 C46.180,7.470 38.929,0.933 30.123,0.933 C23.168,0.933 17.186,5.012 14.506,10.867 C14.421,10.865 14.337,10.860 14.252,10.860 C6.922,10.860 0.979,16.702 0.979,23.908 C0.979,31.114 6.922,36.956 14.252,36.956 "/>
<path fill-rule="evenodd"  fill="rgb(216, 218, 225)"
 d="M61.180,36.991 C64.919,36.991 67.951,33.979 67.951,30.263 C67.951,26.547 64.919,23.535 61.180,23.535 C61.157,23.535 61.134,23.538 61.111,23.538 C60.509,18.173 55.931,14.000 50.372,14.000 C45.981,14.000 42.204,16.604 40.513,20.340 C40.459,20.339 40.406,20.336 40.353,20.336 C35.724,20.336 31.973,24.065 31.973,28.664 C31.973,33.263 35.724,36.991 40.353,36.991 "/>
<path fill="url(#PSgrad_0)"
 d="M61.180,36.991 C64.919,36.991 67.951,33.979 67.951,30.263 C67.951,26.547 64.919,23.535 61.180,23.535 C61.157,23.535 61.134,23.538 61.111,23.538 C60.509,18.173 55.931,14.000 50.372,14.000 C45.981,14.000 42.204,16.604 40.513,20.340 C40.459,20.339 40.406,20.336 40.353,20.336 C35.724,20.336 31.973,24.065 31.973,28.664 C31.973,33.263 35.724,36.991 40.353,36.991 "/>
<path fill-rule="evenodd"  fill="rgb(72, 99, 110)"
 d="M53.396,54.884 L50.490,59.757 C50.116,60.383 49.440,60.732 48.744,60.732 C48.403,60.732 48.057,60.648 47.739,60.471 C46.776,59.932 46.446,58.740 47.002,57.808 L49.908,52.934 C50.464,52.002 51.692,51.681 52.659,52.221 C53.622,52.759 53.952,53.951 53.396,54.884 ZM44.450,52.759 C44.076,53.384 43.400,53.734 42.704,53.734 C42.362,53.734 42.016,53.650 41.699,53.472 C40.735,52.934 40.406,51.742 40.961,50.809 L43.868,45.936 C44.424,45.004 45.652,44.682 46.618,45.222 C47.582,45.761 47.911,46.953 47.356,47.885 L44.450,52.759 ZM33.767,59.757 C33.393,60.383 32.717,60.732 32.021,60.732 C31.680,60.732 31.334,60.648 31.016,60.471 C30.052,59.932 29.723,58.740 30.279,57.808 L33.185,52.934 C33.741,52.002 34.969,51.681 35.936,52.221 C36.899,52.759 37.228,53.951 36.673,54.884 L33.767,59.757 ZM28.229,52.759 C27.856,53.384 27.179,53.734 26.483,53.734 C26.142,53.734 25.796,53.650 25.478,53.472 C24.515,52.934 24.186,51.742 24.741,50.809 L27.647,45.936 C28.204,45.004 29.432,44.682 30.398,45.222 C31.362,45.761 31.691,46.953 31.135,47.885 L28.229,52.759 ZM17.043,59.757 C16.669,60.383 15.993,60.732 15.296,60.732 C14.955,60.732 14.609,60.648 14.292,60.471 C13.328,59.932 12.999,58.740 13.554,57.808 L16.460,52.934 C17.017,52.002 18.246,51.681 19.211,52.221 C20.175,52.759 20.504,53.951 19.949,54.884 L17.043,59.757 ZM12.009,52.759 C11.635,53.384 10.959,53.734 10.263,53.734 C9.922,53.734 9.576,53.650 9.258,53.472 C8.294,52.934 7.965,51.742 8.521,50.809 L11.427,45.936 C11.983,45.004 13.211,44.682 14.178,45.222 C15.141,45.761 15.470,46.953 14.915,47.885 L12.009,52.759 Z"/>
<path fill="url(#PSgrad_1)"
 d="M53.396,54.884 L50.490,59.757 C50.116,60.383 49.440,60.732 48.744,60.732 C48.403,60.732 48.057,60.648 47.739,60.471 C46.776,59.932 46.446,58.740 47.002,57.808 L49.908,52.934 C50.464,52.002 51.692,51.681 52.659,52.221 C53.622,52.759 53.952,53.951 53.396,54.884 ZM44.450,52.759 C44.076,53.384 43.400,53.734 42.704,53.734 C42.362,53.734 42.016,53.650 41.699,53.472 C40.735,52.934 40.406,51.742 40.961,50.809 L43.868,45.936 C44.424,45.004 45.652,44.682 46.618,45.222 C47.582,45.761 47.911,46.953 47.356,47.885 L44.450,52.759 ZM33.767,59.757 C33.393,60.383 32.717,60.732 32.021,60.732 C31.680,60.732 31.334,60.648 31.016,60.471 C30.052,59.932 29.723,58.740 30.279,57.808 L33.185,52.934 C33.741,52.002 34.969,51.681 35.936,52.221 C36.899,52.759 37.228,53.951 36.673,54.884 L33.767,59.757 ZM28.229,52.759 C27.856,53.384 27.179,53.734 26.483,53.734 C26.142,53.734 25.796,53.650 25.478,53.472 C24.515,52.934 24.186,51.742 24.741,50.809 L27.647,45.936 C28.204,45.004 29.432,44.682 30.398,45.222 C31.362,45.761 31.691,46.953 31.135,47.885 L28.229,52.759 ZM17.043,59.757 C16.669,60.383 15.993,60.732 15.296,60.732 C14.955,60.732 14.609,60.648 14.292,60.471 C13.328,59.932 12.999,58.740 13.554,57.808 L16.460,52.934 C17.017,52.002 18.246,51.681 19.211,52.221 C20.175,52.759 20.504,53.951 19.949,54.884 L17.043,59.757 ZM12.009,52.759 C11.635,53.384 10.959,53.734 10.263,53.734 C9.922,53.734 9.576,53.650 9.258,53.472 C8.294,52.934 7.965,51.742 8.521,50.809 L11.427,45.936 C11.983,45.004 13.211,44.682 14.178,45.222 C15.141,45.761 15.470,46.953 14.915,47.885 L12.009,52.759 Z"/>
</svg>