<svg 
 xmlns="http://www.w3.org/2000/svg"
 width="68px" height="74px">
<defs>
<linearGradient id="PSgrad_0" x1="0%" x2="70.711%" y1="70.711%" y2="0%">
  <stop offset="0%" stop-color="#05ACEC" stop-opacity="1" />
  <stop offset="100%" stop-color="#74C4F2" stop-opacity="1" />
</linearGradient>
<linearGradient id="PSgrad_1" x1="0%" x2="70.711%" y1="70.711%" y2="0%">
  <stop offset="0%" stop-color="#D8E7F8" stop-opacity="1" />
  <stop offset="100%" stop-color="#E2ECF9" stop-opacity="1" />
</linearGradient>

</defs>
<path fill-rule="evenodd"  fill="rgb(37, 48, 52)"
 d="M53.677,28.950 C45.548,28.950 38.934,22.336 38.934,14.206 C38.934,7.672 43.323,1.848 49.607,0.045 C49.880,-0.032 50.168,0.043 50.366,0.241 C50.564,0.440 50.640,0.730 50.562,1.000 C50.217,2.205 50.041,3.432 50.041,4.645 C50.041,11.922 55.961,17.843 63.239,17.843 C64.450,17.843 65.677,17.667 66.883,17.321 C67.154,17.245 67.444,17.320 67.642,17.518 C67.840,17.717 67.916,18.007 67.838,18.277 C66.034,24.561 60.211,28.950 53.677,28.950 Z"/>
<path fill="url(#PSgrad_0)"
 d="M53.677,28.950 C45.548,28.950 38.934,22.336 38.934,14.206 C38.934,7.672 43.323,1.848 49.607,0.045 C49.880,-0.032 50.168,0.043 50.366,0.241 C50.564,0.440 50.640,0.730 50.562,1.000 C50.217,2.205 50.041,3.432 50.041,4.645 C50.041,11.922 55.961,17.843 63.239,17.843 C64.450,17.843 65.677,17.667 66.883,17.321 C67.154,17.245 67.444,17.320 67.642,17.518 C67.840,17.717 67.916,18.007 67.838,18.277 C66.034,24.561 60.211,28.950 53.677,28.950 Z"/>
<path fill-rule="evenodd"  fill="rgb(201, 197, 202)"
 d="M47.243,44.956 C53.166,44.956 57.968,40.236 57.968,34.413 C57.968,28.591 53.166,23.871 47.243,23.871 C47.206,23.871 47.170,23.876 47.133,23.877 C46.180,15.470 38.929,8.933 30.123,8.933 C23.168,8.933 17.186,13.012 14.506,18.866 C14.421,18.865 14.337,18.860 14.252,18.860 C6.922,18.860 0.979,24.702 0.979,31.908 C0.979,39.114 6.922,44.956 14.252,44.956 "/>
<path fill="url(#PSgrad_1)"
 d="M47.243,44.956 C53.166,44.956 57.968,40.236 57.968,34.413 C57.968,28.591 53.166,23.871 47.243,23.871 C47.206,23.871 47.170,23.876 47.133,23.877 C46.180,15.470 38.929,8.933 30.123,8.933 C23.168,8.933 17.186,13.012 14.506,18.866 C14.421,18.865 14.337,18.860 14.252,18.860 C6.922,18.860 0.979,24.702 0.979,31.908 C0.979,39.114 6.922,44.956 14.252,44.956 "/>
<path fill-rule="evenodd"  fill="#ffffff"
 d="M61.180,44.991 C64.919,44.991 67.951,41.979 67.951,38.263 C67.951,34.547 64.919,31.535 61.180,31.535 C61.157,31.535 61.134,31.538 61.111,31.538 C60.509,26.173 55.931,22.000 50.372,22.000 C45.981,22.000 42.204,24.604 40.513,28.340 C40.459,28.339 40.406,28.336 40.353,28.336 C35.725,28.336 31.973,32.065 31.973,36.664 C31.973,41.263 35.725,44.991 40.353,44.991 "/>
<path fill-rule="evenodd"  fill="rgb(37, 48, 52)"
 d="M47.354,55.237 L41.420,65.802 C41.054,66.454 40.389,66.819 39.705,66.819 C39.370,66.819 39.030,66.731 38.718,66.546 C37.772,65.985 37.448,64.741 37.994,63.769 L43.928,53.203 C44.474,52.231 45.684,51.896 46.630,52.459 C47.576,53.021 47.900,54.264 47.354,55.237 ZM29.660,69.324 C29.294,69.976 28.629,70.341 27.945,70.341 C27.610,70.341 27.270,70.253 26.958,70.068 C26.012,69.507 25.688,68.263 26.235,67.291 L34.146,53.203 C34.692,52.231 35.903,51.896 36.848,52.459 C37.794,53.021 38.118,54.264 37.572,55.237 L29.660,69.324 ZM16.912,72.846 C16.546,73.498 15.881,73.863 15.197,73.863 C14.861,73.863 14.521,73.775 14.210,73.591 C13.264,73.029 12.940,71.786 13.486,70.813 L23.376,53.203 C23.922,52.231 25.132,51.896 26.078,52.459 C27.024,53.021 27.348,54.264 26.802,55.237 L16.912,72.846 ZM9.850,66.681 C9.484,67.333 8.819,67.698 8.135,67.698 C7.800,67.698 7.460,67.610 7.148,67.425 C6.202,66.863 5.878,65.620 6.424,64.647 L12.852,53.203 C13.398,52.231 14.608,51.896 15.554,52.459 C16.500,53.021 16.824,54.264 16.277,55.237 L9.850,66.681 Z"/>
<path fill="url(#PSgrad_0)"
 d="M47.354,55.237 L41.420,65.802 C41.054,66.454 40.389,66.819 39.705,66.819 C39.370,66.819 39.030,66.731 38.718,66.546 C37.772,65.985 37.448,64.741 37.994,63.769 L43.928,53.203 C44.474,52.231 45.684,51.896 46.630,52.459 C47.576,53.021 47.900,54.264 47.354,55.237 ZM29.660,69.324 C29.294,69.976 28.629,70.341 27.945,70.341 C27.610,70.341 27.270,70.253 26.958,70.068 C26.012,69.507 25.688,68.263 26.235,67.291 L34.146,53.203 C34.692,52.231 35.903,51.896 36.848,52.459 C37.794,53.021 38.118,54.264 37.572,55.237 L29.660,69.324 ZM16.912,72.846 C16.546,73.498 15.881,73.863 15.197,73.863 C14.861,73.863 14.521,73.775 14.210,73.591 C13.264,73.029 12.940,71.786 13.486,70.813 L23.376,53.203 C23.922,52.231 25.132,51.896 26.078,52.459 C27.024,53.021 27.348,54.264 26.802,55.237 L16.912,72.846 ZM9.850,66.681 C9.484,67.333 8.819,67.698 8.135,67.698 C7.800,67.698 7.460,67.610 7.148,67.425 C6.202,66.863 5.878,65.620 6.424,64.647 L12.852,53.203 C13.398,52.231 14.608,51.896 15.554,52.459 C16.500,53.021 16.824,54.264 16.277,55.237 L9.850,66.681 Z"/>
</svg>