<svg 
 xmlns="http://www.w3.org/2000/svg"
 width="69px" height="74px">
<defs>
<linearGradient id="PSgrad_0" x1="0%" x2="70.711%" y1="70.711%" y2="0%">
  <stop offset="0%" stop-color="#D7E6F7" stop-opacity="1" />
  <stop offset="100%" stop-color="#E2ECF9" stop-opacity="1" />
</linearGradient>
<linearGradient id="PSgrad_1" x1="0%" x2="70.711%" y1="70.711%" y2="0%">
  <stop offset="0%" stop-color="#22B1EE" stop-opacity="1" />
  <stop offset="100%" stop-color="#71C2F2" stop-opacity="1" />
</linearGradient>

</defs>
<path fill-rule="evenodd"  fill="rgb(209, 216, 224)"
 d="M52.199,57.616 C52.199,60.361 49.973,62.587 47.228,62.587 C44.482,62.587 42.257,60.361 42.257,57.616 C42.257,54.870 44.482,52.645 47.228,52.645 C49.973,52.645 52.199,54.870 52.199,57.616 Z"/>
<path fill="url(#PSgrad_0)"
 d="M52.199,57.616 C52.199,60.361 49.973,62.587 47.228,62.587 C44.482,62.587 42.257,60.361 42.257,57.616 C42.257,54.870 44.482,52.645 47.228,52.645 C49.973,52.645 52.199,54.870 52.199,57.616 Z"/>
<path fill-rule="evenodd"  fill="rgb(81, 115, 131)"
 d="M54.677,28.950 C46.548,28.950 39.934,22.336 39.934,14.206 C39.934,7.672 44.323,1.848 50.607,0.045 C50.880,-0.032 51.168,0.043 51.366,0.241 C51.565,0.440 51.640,0.730 51.562,1.000 C51.217,2.205 51.041,3.432 51.041,4.645 C51.041,11.922 56.961,17.843 64.239,17.843 C65.450,17.843 66.677,17.667 67.883,17.321 C68.154,17.245 68.444,17.320 68.642,17.518 C68.840,17.716 68.916,18.007 68.838,18.277 C67.034,24.561 61.211,28.950 54.677,28.950 Z"/>
<path fill="url(#PSgrad_1)"
 d="M54.677,28.950 C46.548,28.950 39.934,22.336 39.934,14.206 C39.934,7.672 44.323,1.848 50.607,0.045 C50.880,-0.032 51.168,0.043 51.366,0.241 C51.565,0.440 51.640,0.730 51.562,1.000 C51.217,2.205 51.041,3.432 51.041,4.645 C51.041,11.922 56.961,17.843 64.239,17.843 C65.450,17.843 66.677,17.667 67.883,17.321 C68.154,17.245 68.444,17.320 68.642,17.518 C68.840,17.716 68.916,18.007 68.838,18.277 C67.034,24.561 61.211,28.950 54.677,28.950 Z"/>
<path fill-rule="evenodd"  fill="rgb(209, 216, 224)"
 d="M47.243,44.956 C53.166,44.956 57.968,40.236 57.968,34.413 C57.968,28.591 53.166,23.871 47.243,23.871 C47.206,23.871 47.170,23.876 47.133,23.877 C46.180,15.470 38.929,8.933 30.123,8.933 C23.168,8.933 17.186,13.012 14.506,18.866 C14.421,18.865 14.337,18.860 14.252,18.860 C6.922,18.860 0.979,24.702 0.979,31.908 C0.979,39.114 6.922,44.956 14.252,44.956 "/>
<path fill="url(#PSgrad_0)"
 d="M47.243,44.956 C53.166,44.956 57.968,40.236 57.968,34.413 C57.968,28.591 53.166,23.871 47.243,23.871 C47.206,23.871 47.170,23.876 47.133,23.877 C46.180,15.470 38.929,8.933 30.123,8.933 C23.168,8.933 17.186,13.012 14.506,18.866 C14.421,18.865 14.337,18.860 14.252,18.860 C6.922,18.860 0.979,24.702 0.979,31.908 C0.979,39.114 6.922,44.956 14.252,44.956 "/>
<path fill-rule="evenodd"  fill="#ffffff"
 d="M61.180,44.991 C64.919,44.991 67.951,41.979 67.951,38.263 C67.951,34.547 64.919,31.535 61.180,31.535 C61.157,31.535 61.134,31.538 61.111,31.538 C60.509,26.173 55.931,22.000 50.372,22.000 C45.981,22.000 42.204,24.604 40.513,28.340 C40.459,28.339 40.406,28.336 40.353,28.336 C35.725,28.336 31.973,32.065 31.973,36.664 C31.973,41.263 35.725,44.991 40.353,44.991 "/>
<path fill-rule="evenodd"  fill="rgb(209, 216, 224)"
 d="M35.000,57.867 C33.895,57.867 33.000,56.983 33.000,55.892 C33.000,54.802 33.895,53.918 35.000,53.918 C36.105,53.918 36.1000,54.802 36.1000,55.892 C36.1000,56.983 36.105,57.867 35.000,57.867 ZM29.1000,66.044 C28.895,66.044 27.1000,65.160 27.1000,64.070 C27.1000,62.979 28.895,62.095 29.1000,62.095 C31.105,62.095 32.000,62.979 32.000,64.070 C32.000,65.160 31.105,66.044 29.1000,66.044 ZM25.000,73.943 C23.895,73.943 22.1000,73.059 22.1000,71.968 C22.1000,70.878 23.895,69.994 25.000,69.994 C26.105,69.994 27.000,70.878 27.000,71.968 C27.000,73.059 26.105,73.943 25.000,73.943 ZM25.000,57.867 C23.895,57.867 22.1000,56.983 22.1000,55.892 C22.1000,54.802 23.895,53.918 25.000,53.918 C26.105,53.918 27.000,54.802 27.000,55.892 C27.000,56.983 26.105,57.867 25.000,57.867 ZM19.1000,66.044 C18.895,66.044 18.000,65.160 18.000,64.070 C18.000,62.979 18.895,62.095 19.1000,62.095 C21.105,62.095 21.1000,62.979 21.1000,64.070 C21.1000,65.160 21.105,66.044 19.1000,66.044 ZM14.1000,73.943 C13.895,73.943 12.1000,73.059 12.1000,71.968 C12.1000,70.878 13.895,69.994 14.1000,69.994 C16.105,69.994 17.000,70.878 17.000,71.968 C17.000,73.059 16.105,73.943 14.1000,73.943 ZM14.1000,57.867 C13.895,57.867 12.1000,56.983 12.1000,55.892 C12.1000,54.802 13.895,53.918 14.1000,53.918 C16.105,53.918 17.000,54.802 17.000,55.892 C17.000,56.983 16.105,57.867 14.1000,57.867 Z"/>
<path fill="url(#PSgrad_0)"
 d="M35.000,57.867 C33.895,57.867 33.000,56.983 33.000,55.892 C33.000,54.802 33.895,53.918 35.000,53.918 C36.105,53.918 36.1000,54.802 36.1000,55.892 C36.1000,56.983 36.105,57.867 35.000,57.867 ZM29.1000,66.044 C28.895,66.044 27.1000,65.160 27.1000,64.070 C27.1000,62.979 28.895,62.095 29.1000,62.095 C31.105,62.095 32.000,62.979 32.000,64.070 C32.000,65.160 31.105,66.044 29.1000,66.044 ZM25.000,73.943 C23.895,73.943 22.1000,73.059 22.1000,71.968 C22.1000,70.878 23.895,69.994 25.000,69.994 C26.105,69.994 27.000,70.878 27.000,71.968 C27.000,73.059 26.105,73.943 25.000,73.943 ZM25.000,57.867 C23.895,57.867 22.1000,56.983 22.1000,55.892 C22.1000,54.802 23.895,53.918 25.000,53.918 C26.105,53.918 27.000,54.802 27.000,55.892 C27.000,56.983 26.105,57.867 25.000,57.867 ZM19.1000,66.044 C18.895,66.044 18.000,65.160 18.000,64.070 C18.000,62.979 18.895,62.095 19.1000,62.095 C21.105,62.095 21.1000,62.979 21.1000,64.070 C21.1000,65.160 21.105,66.044 19.1000,66.044 ZM14.1000,73.943 C13.895,73.943 12.1000,73.059 12.1000,71.968 C12.1000,70.878 13.895,69.994 14.1000,69.994 C16.105,69.994 17.000,70.878 17.000,71.968 C17.000,73.059 16.105,73.943 14.1000,73.943 ZM14.1000,57.867 C13.895,57.867 12.1000,56.983 12.1000,55.892 C12.1000,54.802 13.895,53.918 14.1000,53.918 C16.105,53.918 17.000,54.802 17.000,55.892 C17.000,56.983 16.105,57.867 14.1000,57.867 Z"/>
</svg>