<svg 
 xmlns="http://www.w3.org/2000/svg"
 xmlns:xlink="http://www.w3.org/1999/xlink"
 width="68px" height="66px">
<defs>
<linearGradient id="PSgrad_0" x1="0%" x2="70.711%" y1="70.711%" y2="0%">
  <stop offset="0%" stop-color="#D9E7F8" stop-opacity="1" />
  <stop offset="100%" stop-color="#E2ECF9" stop-opacity="1" />
</linearGradient>

</defs>
<path fill-rule="evenodd"  fill="#ffffff"
 d="M47.243,36.956 C53.166,36.956 57.968,32.236 57.968,26.413 C57.968,20.591 53.166,15.871 47.243,15.871 C47.206,15.871 47.171,15.876 47.133,15.877 C46.180,7.470 38.929,0.933 30.123,0.933 C23.168,0.933 17.186,5.012 14.506,10.866 C14.421,10.865 14.337,10.860 14.252,10.860 C6.922,10.860 0.979,16.702 0.979,23.908 C0.979,31.114 6.922,36.956 14.252,36.956 "/>
<path fill-rule="evenodd"  fill="rgb(178, 167, 161)"
 d="M61.180,36.991 C64.919,36.991 67.951,33.979 67.951,30.263 C67.951,26.547 64.919,23.535 61.180,23.535 C61.157,23.535 61.134,23.538 61.111,23.538 C60.509,18.173 55.931,14.000 50.372,14.000 C45.981,14.000 42.204,16.604 40.513,20.340 C40.459,20.339 40.406,20.336 40.352,20.336 C35.725,20.336 31.973,24.065 31.973,28.664 C31.973,33.263 35.725,36.991 40.352,36.991 "/>
<path fill="url(#PSgrad_0)"
 d="M61.180,36.991 C64.919,36.991 67.951,33.979 67.951,30.263 C67.951,26.547 64.919,23.535 61.180,23.535 C61.157,23.535 61.134,23.538 61.111,23.538 C60.509,18.173 55.931,14.000 50.372,14.000 C45.981,14.000 42.204,16.604 40.513,20.340 C40.459,20.339 40.406,20.336 40.352,20.336 C35.725,20.336 31.973,24.065 31.973,28.664 C31.973,33.263 35.725,36.991 40.352,36.991 "/>
<path fill-rule="evenodd"  fill="rgb(178, 167, 161)"
 d="M44.000,49.867 C42.895,49.867 41.1000,48.983 41.1000,47.892 C41.1000,46.802 42.895,45.918 44.000,45.918 C45.105,45.918 46.000,46.802 46.000,47.892 C46.000,48.983 45.105,49.867 44.000,49.867 ZM39.000,58.044 C37.896,58.044 37.000,57.160 37.000,56.070 C37.000,54.979 37.896,54.095 39.000,54.095 C40.105,54.095 40.1000,54.979 40.1000,56.070 C40.1000,57.160 40.105,58.044 39.000,58.044 ZM33.1000,65.943 C32.895,65.943 31.1000,65.059 31.1000,63.968 C31.1000,62.878 32.895,61.994 33.1000,61.994 C35.105,61.994 36.000,62.878 36.000,63.968 C36.000,65.059 35.105,65.943 33.1000,65.943 ZM33.1000,49.867 C32.895,49.867 31.1000,48.983 31.1000,47.892 C31.1000,46.802 32.895,45.918 33.1000,45.918 C35.105,45.918 36.000,46.802 36.000,47.892 C36.000,48.983 35.105,49.867 33.1000,49.867 ZM29.000,58.044 C27.896,58.044 26.1000,57.160 26.1000,56.070 C26.1000,54.979 27.896,54.095 29.000,54.095 C30.105,54.095 31.000,54.979 31.000,56.070 C31.000,57.160 30.105,58.044 29.000,58.044 ZM23.1000,65.943 C22.895,65.943 22.000,65.059 22.000,63.968 C22.000,62.878 22.895,61.994 23.1000,61.994 C25.105,61.994 25.1000,62.878 25.1000,63.968 C25.1000,65.059 25.105,65.943 23.1000,65.943 ZM23.1000,49.867 C22.895,49.867 22.000,48.983 22.000,47.892 C22.000,46.802 22.895,45.918 23.1000,45.918 C25.105,45.918 25.1000,46.802 25.1000,47.892 C25.1000,48.983 25.105,49.867 23.1000,49.867 ZM18.1000,58.044 C17.895,58.044 16.1000,57.160 16.1000,56.070 C16.1000,54.979 17.895,54.095 18.1000,54.095 C20.105,54.095 21.000,54.979 21.000,56.070 C21.000,57.160 20.105,58.044 18.1000,58.044 ZM14.000,65.943 C12.896,65.943 12.000,65.059 12.000,63.968 C12.000,62.878 12.896,61.994 14.000,61.994 C15.105,61.994 15.1000,62.878 15.1000,63.968 C15.1000,65.059 15.105,65.943 14.000,65.943 ZM14.000,49.867 C12.896,49.867 12.000,48.983 12.000,47.892 C12.000,46.802 12.896,45.918 14.000,45.918 C15.105,45.918 15.1000,46.802 15.1000,47.892 C15.1000,48.983 15.105,49.867 14.000,49.867 ZM8.1000,58.044 C7.895,58.044 6.1000,57.160 6.1000,56.070 C6.1000,54.979 7.895,54.095 8.1000,54.095 C10.105,54.095 11.000,54.979 11.000,56.070 C11.000,57.160 10.105,58.044 8.1000,58.044 ZM44.000,61.994 C45.105,61.994 46.000,62.878 46.000,63.968 C46.000,65.059 45.105,65.943 44.000,65.943 C42.895,65.943 41.1000,65.059 41.1000,63.968 C41.1000,62.878 42.895,61.994 44.000,61.994 Z"/>
<path fill="url(#PSgrad_0)"
 d="M44.000,49.867 C42.895,49.867 41.1000,48.983 41.1000,47.892 C41.1000,46.802 42.895,45.918 44.000,45.918 C45.105,45.918 46.000,46.802 46.000,47.892 C46.000,48.983 45.105,49.867 44.000,49.867 ZM39.000,58.044 C37.896,58.044 37.000,57.160 37.000,56.070 C37.000,54.979 37.896,54.095 39.000,54.095 C40.105,54.095 40.1000,54.979 40.1000,56.070 C40.1000,57.160 40.105,58.044 39.000,58.044 ZM33.1000,65.943 C32.895,65.943 31.1000,65.059 31.1000,63.968 C31.1000,62.878 32.895,61.994 33.1000,61.994 C35.105,61.994 36.000,62.878 36.000,63.968 C36.000,65.059 35.105,65.943 33.1000,65.943 ZM33.1000,49.867 C32.895,49.867 31.1000,48.983 31.1000,47.892 C31.1000,46.802 32.895,45.918 33.1000,45.918 C35.105,45.918 36.000,46.802 36.000,47.892 C36.000,48.983 35.105,49.867 33.1000,49.867 ZM29.000,58.044 C27.896,58.044 26.1000,57.160 26.1000,56.070 C26.1000,54.979 27.896,54.095 29.000,54.095 C30.105,54.095 31.000,54.979 31.000,56.070 C31.000,57.160 30.105,58.044 29.000,58.044 ZM23.1000,65.943 C22.895,65.943 22.000,65.059 22.000,63.968 C22.000,62.878 22.895,61.994 23.1000,61.994 C25.105,61.994 25.1000,62.878 25.1000,63.968 C25.1000,65.059 25.105,65.943 23.1000,65.943 ZM23.1000,49.867 C22.895,49.867 22.000,48.983 22.000,47.892 C22.000,46.802 22.895,45.918 23.1000,45.918 C25.105,45.918 25.1000,46.802 25.1000,47.892 C25.1000,48.983 25.105,49.867 23.1000,49.867 ZM18.1000,58.044 C17.895,58.044 16.1000,57.160 16.1000,56.070 C16.1000,54.979 17.895,54.095 18.1000,54.095 C20.105,54.095 21.000,54.979 21.000,56.070 C21.000,57.160 20.105,58.044 18.1000,58.044 ZM14.000,65.943 C12.896,65.943 12.000,65.059 12.000,63.968 C12.000,62.878 12.896,61.994 14.000,61.994 C15.105,61.994 15.1000,62.878 15.1000,63.968 C15.1000,65.059 15.105,65.943 14.000,65.943 ZM14.000,49.867 C12.896,49.867 12.000,48.983 12.000,47.892 C12.000,46.802 12.896,45.918 14.000,45.918 C15.105,45.918 15.1000,46.802 15.1000,47.892 C15.1000,48.983 15.105,49.867 14.000,49.867 ZM8.1000,58.044 C7.895,58.044 6.1000,57.160 6.1000,56.070 C6.1000,54.979 7.895,54.095 8.1000,54.095 C10.105,54.095 11.000,54.979 11.000,56.070 C11.000,57.160 10.105,58.044 8.1000,58.044 ZM44.000,61.994 C45.105,61.994 46.000,62.878 46.000,63.968 C46.000,65.059 45.105,65.943 44.000,65.943 C42.895,65.943 41.1000,65.059 41.1000,63.968 C41.1000,62.878 42.895,61.994 44.000,61.994 Z"/>
</svg>