<svg 
 xmlns="http://www.w3.org/2000/svg"
 width="68px" height="66px">
<defs>
<linearGradient id="PSgrad_0" x1="0%" x2="70.711%" y1="70.711%" y2="0%">
  <stop offset="0%" stop-color="#D7E6F7" stop-opacity="1" />
  <stop offset="100%" stop-color="#E2ECF9" stop-opacity="1" />
</linearGradient>

</defs>
<path fill-rule="evenodd"  fill="rgb(211, 220, 229)"
 d="M49.199,49.616 C49.199,52.361 46.973,54.587 44.228,54.587 C41.482,54.587 39.257,52.361 39.257,49.616 C39.257,46.870 41.482,44.645 44.228,44.645 C46.973,44.645 49.199,46.870 49.199,49.616 Z"/>
<path fill="url(#PSgrad_0)"
 d="M49.199,49.616 C49.199,52.361 46.973,54.587 44.228,54.587 C41.482,54.587 39.257,52.361 39.257,49.616 C39.257,46.870 41.482,44.645 44.228,44.645 C46.973,44.645 49.199,46.870 49.199,49.616 Z"/>
<path fill-rule="evenodd"  fill="#ffffff"
 d="M47.243,36.956 C53.166,36.956 57.968,32.236 57.968,26.413 C57.968,20.591 53.166,15.871 47.243,15.871 C47.206,15.871 47.171,15.876 47.133,15.877 C46.180,7.470 38.929,0.933 30.123,0.933 C23.168,0.933 17.186,5.012 14.506,10.867 C14.421,10.865 14.337,10.860 14.252,10.860 C6.922,10.860 0.979,16.702 0.979,23.908 C0.979,31.114 6.922,36.956 14.252,36.956 "/>
<path fill-rule="evenodd"  fill="rgb(218, 225, 233)"
 d="M61.180,36.991 C64.919,36.991 67.951,33.979 67.951,30.263 C67.951,26.547 64.919,23.535 61.180,23.535 C61.157,23.535 61.134,23.538 61.111,23.538 C60.509,18.173 55.931,14.000 50.372,14.000 C45.981,14.000 42.204,16.604 40.513,20.340 C40.459,20.339 40.406,20.336 40.352,20.336 C35.725,20.336 31.973,24.065 31.973,28.664 C31.973,33.263 35.725,36.991 40.352,36.991 "/>
<path fill="url(#PSgrad_0)"
 d="M61.180,36.991 C64.919,36.991 67.951,33.979 67.951,30.263 C67.951,26.547 64.919,23.535 61.180,23.535 C61.157,23.535 61.134,23.538 61.111,23.538 C60.509,18.173 55.931,14.000 50.372,14.000 C45.981,14.000 42.204,16.604 40.513,20.340 C40.459,20.339 40.406,20.336 40.352,20.336 C35.725,20.336 31.973,24.065 31.973,28.664 C31.973,33.263 35.725,36.991 40.352,36.991 "/>
<path fill-rule="evenodd"  fill="rgb(211, 220, 229)"
 d="M32.000,49.867 C30.895,49.867 30.000,48.983 30.000,47.892 C30.000,46.802 30.895,45.918 32.000,45.918 C33.105,45.918 33.1000,46.802 33.1000,47.892 C33.1000,48.983 33.105,49.867 32.000,49.867 ZM26.1000,58.045 C25.895,58.045 24.1000,57.160 24.1000,56.070 C24.1000,54.979 25.895,54.095 26.1000,54.095 C28.105,54.095 29.000,54.979 29.000,56.070 C29.000,57.160 28.105,58.045 26.1000,58.045 ZM22.000,65.943 C20.895,65.943 20.000,65.059 20.000,63.968 C20.000,62.878 20.895,61.994 22.000,61.994 C23.105,61.994 23.1000,62.878 23.1000,63.968 C23.1000,65.059 23.105,65.943 22.000,65.943 ZM22.000,49.867 C20.895,49.867 20.000,48.983 20.000,47.892 C20.000,46.802 20.895,45.918 22.000,45.918 C23.105,45.918 23.1000,46.802 23.1000,47.892 C23.1000,48.983 23.105,49.867 22.000,49.867 ZM16.1000,58.045 C15.895,58.045 15.000,57.160 15.000,56.070 C15.000,54.979 15.895,54.095 16.1000,54.095 C18.105,54.095 18.1000,54.979 18.1000,56.070 C18.1000,57.160 18.105,58.045 16.1000,58.045 ZM12.000,65.943 C10.895,65.943 9.1000,65.059 9.1000,63.968 C9.1000,62.878 10.895,61.994 12.000,61.994 C13.105,61.994 14.000,62.878 14.000,63.968 C14.000,65.059 13.105,65.943 12.000,65.943 ZM12.000,49.867 C10.895,49.867 9.1000,48.983 9.1000,47.892 C9.1000,46.802 10.895,45.918 12.000,45.918 C13.105,45.918 14.000,46.802 14.000,47.892 C14.000,48.983 13.105,49.867 12.000,49.867 Z"/>
<path fill="url(#PSgrad_0)"
 d="M32.000,49.867 C30.895,49.867 30.000,48.983 30.000,47.892 C30.000,46.802 30.895,45.918 32.000,45.918 C33.105,45.918 33.1000,46.802 33.1000,47.892 C33.1000,48.983 33.105,49.867 32.000,49.867 ZM26.1000,58.045 C25.895,58.045 24.1000,57.160 24.1000,56.070 C24.1000,54.979 25.895,54.095 26.1000,54.095 C28.105,54.095 29.000,54.979 29.000,56.070 C29.000,57.160 28.105,58.045 26.1000,58.045 ZM22.000,65.943 C20.895,65.943 20.000,65.059 20.000,63.968 C20.000,62.878 20.895,61.994 22.000,61.994 C23.105,61.994 23.1000,62.878 23.1000,63.968 C23.1000,65.059 23.105,65.943 22.000,65.943 ZM22.000,49.867 C20.895,49.867 20.000,48.983 20.000,47.892 C20.000,46.802 20.895,45.918 22.000,45.918 C23.105,45.918 23.1000,46.802 23.1000,47.892 C23.1000,48.983 23.105,49.867 22.000,49.867 ZM16.1000,58.045 C15.895,58.045 15.000,57.160 15.000,56.070 C15.000,54.979 15.895,54.095 16.1000,54.095 C18.105,54.095 18.1000,54.979 18.1000,56.070 C18.1000,57.160 18.105,58.045 16.1000,58.045 ZM12.000,65.943 C10.895,65.943 9.1000,65.059 9.1000,63.968 C9.1000,62.878 10.895,61.994 12.000,61.994 C13.105,61.994 14.000,62.878 14.000,63.968 C14.000,65.059 13.105,65.943 12.000,65.943 ZM12.000,49.867 C10.895,49.867 9.1000,48.983 9.1000,47.892 C9.1000,46.802 10.895,45.918 12.000,45.918 C13.105,45.918 14.000,46.802 14.000,47.892 C14.000,48.983 13.105,49.867 12.000,49.867 Z"/>
</svg>