<svg 
 xmlns="http://www.w3.org/2000/svg"
 width="68px" height="59px">
<defs>
<linearGradient id="PSgrad_0" x1="0%" x2="70.711%" y1="70.711%" y2="0%">
  <stop offset="0%" stop-color="#EBB535" stop-opacity="1" />
  <stop offset="100%" stop-color="#F3D152" stop-opacity="1" />
</linearGradient>
<linearGradient id="PSgrad_1" x1="0%" x2="70.711%" y1="70.711%" y2="0%">
  <stop offset="0%" stop-color="#D8E7F8" stop-opacity="1" />
  <stop offset="100%" stop-color="#E2ECF9" stop-opacity="1" />
</linearGradient>
<linearGradient id="PSgrad_2" x1="0%" x2="70.711%" y1="70.711%" y2="0%">
  <stop offset="0%" stop-color="#29B3ED" stop-opacity="1" />
  <stop offset="100%" stop-color="#7BC6F2" stop-opacity="1" />
</linearGradient>

</defs>
<path fill-rule="evenodd"  fill="rgb(100, 94, 69)"
 d="M41.631,31.980 C39.971,31.979 37.934,33.155 37.105,34.595 L31.807,43.786 C30.977,45.226 31.653,46.305 33.308,46.183 L37.635,45.864 C39.290,45.742 39.996,46.838 39.204,48.298 L34.391,57.172 C33.598,58.632 33.999,58.964 35.281,57.907 L52.684,43.570 C53.965,42.514 53.658,41.719 52.001,41.805 L45.351,42.145 C43.693,42.230 43.016,41.122 43.846,39.682 L46.773,34.604 C47.602,33.165 46.923,31.985 45.264,31.984 L41.631,31.980 Z"/>
<path fill="url(#PSgrad_0)"
 d="M41.631,31.980 C39.971,31.979 37.934,33.155 37.105,34.595 L31.807,43.786 C30.977,45.226 31.653,46.305 33.308,46.183 L37.635,45.864 C39.290,45.742 39.996,46.838 39.204,48.298 L34.391,57.172 C33.598,58.632 33.999,58.964 35.281,57.907 L52.684,43.570 C53.965,42.514 53.658,41.719 52.001,41.805 L45.351,42.145 C43.693,42.230 43.016,41.122 43.846,39.682 L46.773,34.604 C47.602,33.165 46.923,31.985 45.264,31.984 L41.631,31.980 Z"/>
<path fill-rule="evenodd"  fill="#ffffff"
 d="M47.243,36.956 C53.166,36.956 57.968,32.236 57.968,26.413 C57.968,20.591 53.166,15.871 47.243,15.871 C47.206,15.871 47.170,15.876 47.133,15.877 C46.180,7.470 38.929,0.933 30.123,0.933 C23.168,0.933 17.186,5.012 14.506,10.866 C14.421,10.865 14.337,10.860 14.252,10.860 C6.922,10.860 0.979,16.702 0.979,23.908 C0.979,31.114 6.922,36.956 14.252,36.956 "/>
<path fill-rule="evenodd"  fill="rgb(205, 206, 216)"
 d="M61.180,36.991 C64.919,36.991 67.951,33.979 67.951,30.263 C67.951,26.547 64.919,23.535 61.180,23.535 C61.157,23.535 61.134,23.538 61.111,23.538 C60.509,18.173 55.931,14.000 50.372,14.000 C45.981,14.000 42.204,16.604 40.513,20.340 C40.459,20.339 40.406,20.336 40.353,20.336 C35.725,20.336 31.973,24.065 31.973,28.664 C31.973,33.263 35.725,36.991 40.353,36.991 "/>
<path fill="url(#PSgrad_1)"
 d="M61.180,36.991 C64.919,36.991 67.951,33.979 67.951,30.263 C67.951,26.547 64.919,23.535 61.180,23.535 C61.157,23.535 61.134,23.538 61.111,23.538 C60.509,18.173 55.931,14.000 50.372,14.000 C45.981,14.000 42.204,16.604 40.513,20.340 C40.459,20.339 40.406,20.336 40.353,20.336 C35.725,20.336 31.973,24.065 31.973,28.664 C31.973,33.263 35.725,36.991 40.353,36.991 "/>
<path fill-rule="evenodd"  fill="rgb(34, 43, 47)"
 d="M25.283,46.087 L18.702,57.639 C18.328,58.298 17.647,58.666 16.947,58.666 C16.603,58.666 16.255,58.578 15.936,58.391 C14.967,57.824 14.636,56.569 15.195,55.587 L21.776,44.035 C22.334,43.053 23.573,42.718 24.542,43.283 C25.511,43.851 25.842,45.105 25.283,46.087 ZM7.934,57.639 C7.560,58.298 6.879,58.666 6.179,58.666 C5.835,58.666 5.487,58.578 5.168,58.391 C4.199,57.824 3.868,56.569 4.427,55.587 L11.008,44.035 C11.566,43.053 12.806,42.718 13.774,43.283 C14.743,43.851 15.074,45.105 14.515,46.087 L7.934,57.639 Z"/>
<path fill="url(#PSgrad_2)"
 d="M25.283,46.087 L18.702,57.639 C18.328,58.298 17.647,58.666 16.947,58.666 C16.603,58.666 16.255,58.578 15.936,58.391 C14.967,57.824 14.636,56.569 15.195,55.587 L21.776,44.035 C22.334,43.053 23.573,42.718 24.542,43.283 C25.511,43.851 25.842,45.105 25.283,46.087 ZM7.934,57.639 C7.560,58.298 6.879,58.666 6.179,58.666 C5.835,58.666 5.487,58.578 5.168,58.391 C4.199,57.824 3.868,56.569 4.427,55.587 L11.008,44.035 C11.566,43.053 12.806,42.718 13.774,43.283 C14.743,43.851 15.074,45.105 14.515,46.087 L7.934,57.639 Z"/>
</svg>