<svg 
 xmlns="http://www.w3.org/2000/svg"
 width="68px" height="68px">
<defs>
<linearGradient id="PSgrad_0" x1="0%" x2="70.711%" y1="70.711%" y2="0%">
  <stop offset="0%" stop-color="#EBB535" stop-opacity="1" />
  <stop offset="100%" stop-color="#F3D152" stop-opacity="1" />
</linearGradient>
<linearGradient id="PSgrad_1" x1="0%" x2="70.711%" y1="70.711%" y2="0%">
  <stop offset="0%" stop-color="#29B3ED" stop-opacity="1" />
  <stop offset="100%" stop-color="#7BC6F2" stop-opacity="1" />
</linearGradient>
<linearGradient id="PSgrad_2" x1="0%" x2="70.711%" y1="70.711%" y2="0%">
  <stop offset="0%" stop-color="#D8E7F8" stop-opacity="1" />
  <stop offset="100%" stop-color="#E2ECF9" stop-opacity="1" />
</linearGradient>

</defs>
<path fill-rule="evenodd"  fill="rgb(92, 85, 61)"
 d="M42.631,40.980 C40.971,40.979 38.934,42.155 38.105,43.595 L32.807,52.786 C31.977,54.226 32.653,55.305 34.308,55.183 L38.635,54.864 C40.290,54.742 40.996,55.838 40.204,57.298 L35.391,66.172 C34.598,67.632 34.999,67.964 36.281,66.907 L53.684,52.570 C54.966,51.514 54.658,50.719 53.001,50.805 L46.351,51.145 C44.693,51.230 44.016,50.122 44.846,48.682 L47.772,43.604 C48.602,42.165 47.923,40.985 46.264,40.984 L42.631,40.980 Z"/>
<path fill="url(#PSgrad_0)"
 d="M42.631,40.980 C40.971,40.979 38.934,42.155 38.105,43.595 L32.807,52.786 C31.977,54.226 32.653,55.305 34.308,55.183 L38.635,54.864 C40.290,54.742 40.996,55.838 40.204,57.298 L35.391,66.172 C34.598,67.632 34.999,67.964 36.281,66.907 L53.684,52.570 C54.966,51.514 54.658,50.719 53.001,50.805 L46.351,51.145 C44.693,51.230 44.016,50.122 44.846,48.682 L47.772,43.604 C48.602,42.165 47.923,40.985 46.264,40.984 L42.631,40.980 Z"/>
<path fill-rule="evenodd"  fill="rgb(27, 32, 35)"
 d="M53.677,28.950 C45.548,28.950 38.934,22.336 38.934,14.206 C38.934,7.672 43.323,1.848 49.607,0.045 C49.880,-0.032 50.168,0.043 50.366,0.241 C50.565,0.440 50.640,0.730 50.562,1.000 C50.217,2.205 50.041,3.432 50.041,4.645 C50.041,11.922 55.961,17.843 63.239,17.843 C64.450,17.843 65.677,17.667 66.883,17.321 C67.154,17.245 67.444,17.320 67.642,17.518 C67.840,17.717 67.916,18.007 67.838,18.277 C66.034,24.561 60.211,28.950 53.677,28.950 Z"/>
<path fill="url(#PSgrad_1)"
 d="M53.677,28.950 C45.548,28.950 38.934,22.336 38.934,14.206 C38.934,7.672 43.323,1.848 49.607,0.045 C49.880,-0.032 50.168,0.043 50.366,0.241 C50.565,0.440 50.640,0.730 50.562,1.000 C50.217,2.205 50.041,3.432 50.041,4.645 C50.041,11.922 55.961,17.843 63.239,17.843 C64.450,17.843 65.677,17.667 66.883,17.321 C67.154,17.245 67.444,17.320 67.642,17.518 C67.840,17.717 67.916,18.007 67.838,18.277 C66.034,24.561 60.211,28.950 53.677,28.950 Z"/>
<path fill-rule="evenodd"  fill="rgb(201, 195, 196)"
 d="M47.243,44.956 C53.166,44.956 57.968,40.236 57.968,34.413 C57.968,28.591 53.166,23.871 47.243,23.871 C47.206,23.871 47.170,23.876 47.134,23.877 C46.180,15.470 38.929,8.933 30.123,8.933 C23.168,8.933 17.186,13.012 14.506,18.867 C14.421,18.865 14.337,18.860 14.252,18.860 C6.922,18.860 0.979,24.702 0.979,31.908 C0.979,39.114 6.922,44.956 14.252,44.956 "/>
<path fill="url(#PSgrad_2)"
 d="M47.243,44.956 C53.166,44.956 57.968,40.236 57.968,34.413 C57.968,28.591 53.166,23.871 47.243,23.871 C47.206,23.871 47.170,23.876 47.134,23.877 C46.180,15.470 38.929,8.933 30.123,8.933 C23.168,8.933 17.186,13.012 14.506,18.867 C14.421,18.865 14.337,18.860 14.252,18.860 C6.922,18.860 0.979,24.702 0.979,31.908 C0.979,39.114 6.922,44.956 14.252,44.956 "/>
<path fill-rule="evenodd"  fill="#ffffff"
 d="M61.180,44.991 C64.919,44.991 67.951,41.979 67.951,38.263 C67.951,34.547 64.919,31.535 61.180,31.535 C61.157,31.535 61.134,31.538 61.111,31.538 C60.509,26.173 55.931,22.000 50.372,22.000 C45.981,22.000 42.204,24.604 40.513,28.340 C40.459,28.339 40.406,28.336 40.352,28.336 C35.725,28.336 31.973,32.065 31.973,36.664 C31.973,41.263 35.725,44.991 40.352,44.991 "/>
<path fill-rule="evenodd"  fill="rgb(27, 32, 35)"
 d="M25.283,55.087 L18.702,66.639 C18.328,67.298 17.647,67.666 16.947,67.666 C16.603,67.666 16.255,67.578 15.936,67.391 C14.968,66.824 14.636,65.569 15.195,64.587 L21.776,53.035 C22.335,52.053 23.574,51.718 24.542,52.283 C25.511,52.851 25.842,54.105 25.283,55.087 ZM7.934,66.639 C7.560,67.298 6.879,67.666 6.179,67.666 C5.835,67.666 5.487,67.578 5.168,67.391 C4.199,66.824 3.868,65.569 4.427,64.587 L11.008,53.035 C11.566,52.053 12.806,51.718 13.774,52.283 C14.742,52.851 15.074,54.105 14.515,55.087 L7.934,66.639 Z"/>
<path fill="url(#PSgrad_1)"
 d="M25.283,55.087 L18.702,66.639 C18.328,67.298 17.647,67.666 16.947,67.666 C16.603,67.666 16.255,67.578 15.936,67.391 C14.968,66.824 14.636,65.569 15.195,64.587 L21.776,53.035 C22.335,52.053 23.574,51.718 24.542,52.283 C25.511,52.851 25.842,54.105 25.283,55.087 ZM7.934,66.639 C7.560,67.298 6.879,67.666 6.179,67.666 C5.835,67.666 5.487,67.578 5.168,67.391 C4.199,66.824 3.868,65.569 4.427,64.587 L11.008,53.035 C11.566,52.053 12.806,51.718 13.774,52.283 C14.742,52.851 15.074,54.105 14.515,55.087 L7.934,66.639 Z"/>
</svg>