<svg 
 xmlns="http://www.w3.org/2000/svg"
 width="66px" height="35px">
<defs>
<linearGradient id="PSgrad_0" x1="0%" x2="70.711%" y1="70.711%" y2="0%">
  <stop offset="0%" stop-color="#01ADED" stop-opacity="1" />
  <stop offset="100%" stop-color="#7BC6F2" stop-opacity="1" />
</linearGradient>

</defs>
<path fill-rule="evenodd"  fill="rgb(67, 170, 220)"
 d="M60.859,26.224 C58.036,26.224 55.748,23.943 55.748,21.128 C55.748,20.444 55.888,19.793 56.134,19.197 L2.543,19.197 C1.667,19.197 0.956,18.488 0.956,17.614 C0.956,16.740 1.667,16.032 2.543,16.032 L60.731,16.032 C60.753,16.032 60.773,16.037 60.795,16.038 C60.817,16.038 60.837,16.032 60.859,16.032 C63.681,16.032 65.969,18.313 65.969,21.128 C65.969,23.943 63.681,26.224 60.859,26.224 ZM50.279,11.146 C50.257,11.146 50.237,11.140 50.215,11.140 C50.194,11.141 50.173,11.146 50.151,11.146 L26.876,11.146 C26.000,11.146 25.289,10.438 25.289,9.564 C25.289,8.690 26.000,7.981 26.876,7.981 L45.554,7.981 C45.309,7.385 45.169,6.734 45.169,6.050 C45.169,3.235 47.457,0.954 50.279,0.954 C53.102,0.954 55.390,3.235 55.390,6.050 C55.390,8.865 53.102,11.146 50.279,11.146 ZM16.297,24.780 L50.151,24.780 C50.173,24.780 50.194,24.785 50.215,24.786 C50.237,24.786 50.257,24.780 50.279,24.780 C53.102,24.780 55.390,27.061 55.390,29.876 C55.390,32.691 53.102,34.972 50.279,34.972 C47.457,34.972 45.169,32.691 45.169,29.876 C45.169,29.192 45.309,28.541 45.554,27.945 L16.297,27.945 C15.421,27.945 14.710,27.236 14.710,26.362 C14.710,25.488 15.421,24.780 16.297,24.780 Z"/>
<path fill="url(#PSgrad_0)"
 d="M60.859,26.224 C58.036,26.224 55.748,23.943 55.748,21.128 C55.748,20.444 55.888,19.793 56.134,19.197 L2.543,19.197 C1.667,19.197 0.956,18.488 0.956,17.614 C0.956,16.740 1.667,16.032 2.543,16.032 L60.731,16.032 C60.753,16.032 60.773,16.037 60.795,16.038 C60.817,16.038 60.837,16.032 60.859,16.032 C63.681,16.032 65.969,18.313 65.969,21.128 C65.969,23.943 63.681,26.224 60.859,26.224 ZM50.279,11.146 C50.257,11.146 50.237,11.140 50.215,11.140 C50.194,11.141 50.173,11.146 50.151,11.146 L26.876,11.146 C26.000,11.146 25.289,10.438 25.289,9.564 C25.289,8.690 26.000,7.981 26.876,7.981 L45.554,7.981 C45.309,7.385 45.169,6.734 45.169,6.050 C45.169,3.235 47.457,0.954 50.279,0.954 C53.102,0.954 55.390,3.235 55.390,6.050 C55.390,8.865 53.102,11.146 50.279,11.146 ZM16.297,24.780 L50.151,24.780 C50.173,24.780 50.194,24.785 50.215,24.786 C50.237,24.786 50.257,24.780 50.279,24.780 C53.102,24.780 55.390,27.061 55.390,29.876 C55.390,32.691 53.102,34.972 50.279,34.972 C47.457,34.972 45.169,32.691 45.169,29.876 C45.169,29.192 45.309,28.541 45.554,27.945 L16.297,27.945 C15.421,27.945 14.710,27.236 14.710,26.362 C14.710,25.488 15.421,24.780 16.297,24.780 Z"/>
</svg>